<svg width="27" height="20" viewBox="0 0 27 20" fill="none" xmlns="http://www.w3.org/2000/svg">
<path d="M4.55 3.00L3.98 2.06L3.64 3.10L1.42 9.97L1.31 10.31L1.60 10.52L5.60 13.52L6.21 13.98L6.38 13.24L6.80 11.49C6.85 11.26 7.06 11.10 7.30 11.11L8.92 11.17C8.69 12.34 8.49 13.56 8.41 14.65C8.32 15.80 8.35 16.90 8.66 17.70C8.83 18.12 9.07 18.49 9.45 18.73C9.83 18.98 10.28 19.06 10.79 19.00C11.77 18.88 13.02 18.22 14.63 16.96C16.14 15.78 18.01 14.03 20.33 11.57L21.40 11.61L21.40 13.12L21.40 13.77L22.02 13.61L21.90 13.12C22.02 13.61 22.02 13.61 22.02 13.61L22.02 13.61L22.03 13.61L22.03 13.61L22.04 13.60L22.08 13.59C22.11 13.59 22.15 13.57 22.21 13.56C22.33 13.52 22.49 13.47 22.68 13.40C23.07 13.27 23.60 13.07 24.12 12.80C24.65 12.54 25.20 12.20 25.62 11.77C26.05 11.35 26.40 10.80 26.40 10.12C26.40 9.45 26.05 8.90 25.62 8.48C25.20 8.05 24.65 7.71 24.12 7.45C23.60 7.18 23.07 6.98 22.68 6.85C22.49 6.78 22.33 6.73 22.21 6.69C22.15 6.68 22.11 6.66 22.08 6.66L22.04 6.64L22.03 6.64L22.03 6.64L22.02 6.64L22.02 6.64C22.02 6.64 22.02 6.64 21.90 7.12L21.40 7.12C21.40 8.28 20.94 9.45 20.14 10.30C20.07 10.39 19.99 10.47 19.91 10.55L10.13 10.21C10.20 9.90 10.26 9.59 10.33 9.30C10.43 8.79 10.54 8.31 10.62 7.87C10.72 7.40 10.79 6.98 10.84 6.63C10.88 6.31 10.90 5.97 10.84 5.72C10.81 5.60 10.73 5.37 10.49 5.25C10.23 5.11 9.98 5.21 9.86 5.28C9.72 5.35 9.60 5.46 9.49 5.58C9.37 5.70 9.24 5.85 9.10 6.03C8.35 7.00 6.95 6.96 6.39 6.04L4.55 3.00Z" fill="#FBFCFD" stroke="#041522" stroke-linecap="round"/>
</svg>
