<svg width="32" height="32" viewBox="0 0 32 32" fill="none" xmlns="http://www.w3.org/2000/svg">
<path d="M12.51 10.12L12.72 10.97L13.35 10.35L16.85 6.85L17.34 6.36L16.72 6.05L11.72 3.55L10.75 3.06L11.01 4.12L11.41 5.71C11.22 5.81 10.97 5.94 10.67 6.11C10.00 6.50 9.11 7.09 8.21 7.92C6.42 9.59 4.58 12.21 4.50 15.98C4.41 19.77 6.25 22.64 8.08 24.54C8.99 25.50 9.90 26.22 10.59 26.70C10.93 26.94 11.22 27.12 11.42 27.24L11.01 28.87L10.75 29.93L11.72 29.44L16.72 26.94L17.34 26.63L16.85 26.14L13.35 22.64L12.72 22.02L12.51 22.87L12.17 24.25C7.88 21.80 7.11 17.53 7.15 16.01C7.20 14.50 7.86 11.12 12.16 8.73L12.51 10.12Z" fill="#FBFCFD" stroke="#041522" stroke-linecap="round"/>
</svg>
